<svg width="920" height="64" viewBox="0 0 920 64" fill="none" xmlns="http://www.w3.org/2000/svg">
<rect width="920" height="64" rx="10" fill="url(#paint0_linear_11_11)"/>
<path d="M31.1068 12.104V27.854H29.1628V18.296H25.4548V18.062C25.1188 18.866 24.7168 19.586 24.2488 20.222C23.5648 21.134 22.7488 21.914 21.8008 22.562C20.8648 23.21 19.8028 23.75 18.6148 24.182L17.4988 22.598C18.7708 22.13 19.8628 21.572 20.7748 20.924C21.6868 20.276 22.4248 19.502 22.9888 18.602L18.0748 19.052L17.6968 17.27L23.7628 16.892C23.9548 16.28 24.0808 15.608 24.1408 14.876H18.4708V13.202H26.2288C26.2528 14.474 26.1388 15.62 25.8868 16.64H29.1628V12.104H31.1068ZM45.0374 28.232H43.1114V23.066H39.4034V28.232H37.4774V23.066H33.6614V21.446H48.7634V23.066H45.0374V28.232ZM36.1814 19.592V12.806H46.2434V19.592H36.1814ZM44.3174 14.444H38.1254V17.954H44.3174V14.444ZM60.57 22.616C59.994 22.736 59.334 22.838 58.59 22.922C57.846 22.994 57.09 23.054 56.322 23.102C55.53 23.162 54.714 23.204 53.874 23.228C53.034 23.24 52.236 23.234 51.48 23.21V13.112H53.424V21.536C53.892 21.548 54.432 21.548 55.044 21.536C55.656 21.512 56.256 21.476 56.844 21.428C57.456 21.38 58.062 21.32 58.662 21.248C59.274 21.176 59.832 21.086 60.336 20.978L60.57 22.616ZM62.064 12.104H64.008V27.854H62.064V12.104ZM78.6226 12.104H80.5666V27.854H78.6226V12.104ZM67.8586 13.202H75.2386V14.858H69.8026V17.432H75.0766V19.088H69.8026V21.968C70.3546 21.968 70.9306 21.956 71.5306 21.932C72.1426 21.908 72.7546 21.866 73.3666 21.806C73.9786 21.746 74.5846 21.674 75.1846 21.59C75.7846 21.506 76.3666 21.41 76.9306 21.302L77.1646 22.94C75.7126 23.228 74.2066 23.42 72.6466 23.516C71.0866 23.612 69.4906 23.648 67.8586 23.624V13.202Z" fill="black"/>
<path d="M19.9151 40.528H20.8671V42.796C20.8671 45.596 19.3551 48.326 17.3531 49.39L16.6391 48.466C18.4731 47.542 19.9151 45.106 19.9151 42.796V40.528ZM20.1251 40.528H21.0631V42.796C21.0631 45.022 22.4771 47.332 24.2691 48.228L23.5551 49.152C21.5951 48.102 20.1251 45.512 20.1251 42.796V40.528ZM25.3751 39.436H26.5511V52.092H25.3751V39.436ZM26.2711 44.56H28.6231V45.54H26.2711V44.56ZM38.352 39.45H39.514V46.982H38.352V39.45ZM39.164 42.67H41.39V43.65H39.164V42.67ZM31.534 47.612H39.514V51.924H31.534V47.612ZM38.38 48.536H32.682V50.986H38.38V48.536ZM30.246 45.372H31.24C33.536 45.372 35.174 45.316 37.148 44.966L37.246 45.918C35.244 46.254 33.578 46.338 31.24 46.338H30.246V45.372ZM30.218 40.122H35.916V43.594H31.38V45.918H30.246V42.698H34.768V41.074H30.218V40.122ZM42.5789 44.714H54.0169V45.666H42.5789V44.714ZM44.0909 42.754H52.6589V43.692H44.0909V42.754ZM44.0909 39.842H52.5189V40.794H45.2389V43.51H44.0909V39.842ZM43.9509 46.758H52.5469V49.74H45.1269V51.336H43.9789V48.872H51.3989V47.668H43.9509V46.758ZM43.9789 51.028H52.9249V51.952H43.9789V51.028ZM56.0178 40.822H61.7438V41.76H56.0178V40.822ZM57.9918 44.434H59.1398V48.718H57.9918V44.434ZM61.2678 40.822H62.4018V41.494C62.4018 42.53 62.4018 44.182 62.0378 46.534L60.8898 46.422C61.2678 44.14 61.2678 42.516 61.2678 41.494V40.822ZM63.9978 39.436H65.1458V52.092H63.9978V39.436ZM64.8378 44.728H67.1758V45.708H64.8378V44.728ZM55.4578 49.334L55.3178 48.354C57.6138 48.354 60.6658 48.312 63.2278 47.99L63.2838 48.844C60.6658 49.264 57.6978 49.32 55.4578 49.334ZM72.2742 49.488H83.7402V50.454H72.2742V49.488ZM77.3702 46.422H78.5182V49.81H77.3702V46.422ZM77.3422 40.276H78.3502V41.256C78.3502 43.958 75.7602 46.044 73.2122 46.576L72.7222 45.61C74.9482 45.204 77.3422 43.342 77.3422 41.256V40.276ZM77.5522 40.276H78.5602V41.256C78.5602 43.356 80.9682 45.204 83.1942 45.61L82.6902 46.576C80.1422 46.044 77.5522 43.958 77.5522 41.256V40.276ZM85.1391 46.142H96.5771V47.08H85.1391V46.142ZM90.2771 44.504H91.4251V46.534H90.2771V44.504ZM86.6511 43.986H95.2331V44.896H86.6511V43.986ZM86.6511 39.8H95.1771V40.71H87.7991V44.476H86.6511V39.8ZM87.4631 41.872H94.8411V42.768H87.4631V41.872ZM90.8511 48.018C93.6091 48.018 95.1911 48.718 95.1911 50.048C95.1911 51.364 93.6091 52.064 90.8511 52.064C88.0931 52.064 86.5111 51.364 86.5111 50.048C86.5111 48.718 88.0931 48.018 90.8511 48.018ZM90.8511 48.9C88.8211 48.9 87.6871 49.306 87.6871 50.048C87.6871 50.804 88.8211 51.196 90.8511 51.196C92.8811 51.196 94.0151 50.804 94.0151 50.048C94.0151 49.306 92.8811 48.9 90.8511 48.9ZM106.6 39.436H107.762V52.092H106.6V39.436ZM107.482 44.63H109.834V45.61H107.482V44.63ZM97.962 41.452H105.424V42.404H97.962V41.452ZM101.742 43.454C103.534 43.454 104.822 44.658 104.822 46.366C104.822 48.074 103.534 49.278 101.742 49.278C99.964 49.278 98.662 48.074 98.662 46.366C98.662 44.658 99.964 43.454 101.742 43.454ZM101.742 44.42C100.594 44.42 99.768 45.218 99.768 46.366C99.768 47.5 100.594 48.312 101.742 48.312C102.89 48.312 103.716 47.5 103.716 46.366C103.716 45.218 102.89 44.42 101.742 44.42ZM101.14 39.59H102.302V41.886H101.14V39.59ZM116.973 41.662H120.515V42.614H116.973V41.662ZM116.973 44.364H120.543V45.33H116.973V44.364ZM111.485 40.528H117.267V46.464H111.485V40.528ZM116.119 41.466H112.619V45.526H116.119V41.466ZM120.151 39.45H121.313V48.69H120.151V39.45ZM113.179 50.86H121.621V51.812H113.179V50.86ZM113.179 47.85H114.341V51.294H113.179V47.85ZM130.104 43.72H133.632V44.672H130.104V43.72ZM127.052 40.528H128.004V42.782C128.004 45.624 126.506 48.34 124.504 49.418L123.762 48.494C125.624 47.57 127.052 45.134 127.052 42.782V40.528ZM127.276 40.528H128.214V42.782C128.214 45.092 129.642 47.388 131.476 48.256L130.79 49.194C128.746 48.158 127.276 45.554 127.276 42.782V40.528ZM133.058 39.422H134.206V52.106H133.058V39.422ZM143.952 41.242H144.89V43.3C144.89 45.974 143.28 48.662 141.264 49.656L140.592 48.732C142.426 47.864 143.952 45.484 143.952 43.3V41.242ZM144.176 41.242H145.114V43.3C145.114 45.442 146.64 47.626 148.502 48.424L147.844 49.348C145.8 48.396 144.176 45.932 144.176 43.3V41.242ZM141.012 40.724H148.082V41.704H141.012V40.724ZM149.79 39.436H150.952V52.092H149.79V39.436ZM156.775 40.038H157.741V41.27C157.741 43.664 156.313 45.722 154.171 46.534L153.583 45.61C155.501 44.91 156.775 43.16 156.775 41.27V40.038ZM156.985 40.038H157.937V41.27C157.937 43.09 159.239 44.728 161.115 45.386L160.527 46.296C158.413 45.526 156.985 43.594 156.985 41.27V40.038ZM155.403 47.696H163.859V52.092H162.683V48.648H155.403V47.696ZM162.683 39.436H163.859V47.052H162.683V39.436ZM172.076 39.646C174.862 39.646 176.528 40.43 176.528 41.844C176.528 43.258 174.862 44.042 172.076 44.042C169.276 44.042 167.624 43.258 167.624 41.844C167.624 40.43 169.276 39.646 172.076 39.646ZM172.076 40.528C170.004 40.528 168.814 41.004 168.814 41.844C168.814 42.684 170.004 43.16 172.076 43.16C174.134 43.16 175.324 42.684 175.324 41.844C175.324 41.004 174.134 40.528 172.076 40.528ZM166.35 44.882H177.788V45.82H166.35V44.882ZM167.736 46.898H176.332V49.754H168.912V51.294H167.764V48.914H175.184V47.794H167.736V46.898ZM167.764 51.042H176.71V51.952H167.764V51.042ZM183.908 40.066H185.07V45.218H183.908V40.066ZM183.908 44.574H184.888C186.904 44.574 188.598 44.462 190.488 44.084L190.642 45.05C188.682 45.428 186.946 45.54 184.888 45.54H183.908V44.574ZM188.836 41.536H192.7V42.488H188.836V41.536ZM192.42 39.436H193.582V46.156H192.42V39.436ZM189.536 46.646H190.6V48.298H192.518V46.646H193.582V51.952H189.536V46.646ZM190.6 49.194V51.042H192.518V49.194H190.6ZM184.692 46.786H188.766V49.698H185.84V51.434H184.72V48.844H187.646V47.682H184.692V46.786ZM184.72 51.056H185.392C187.03 51.056 187.898 51.028 189.032 50.818L189.158 51.714C187.968 51.938 187.072 51.952 185.392 51.952H184.72V51.056ZM205.243 39.436H206.405V52.092H205.243V39.436ZM196.339 41.48H203.927V42.418H196.339V41.48ZM200.147 43.454C201.967 43.454 203.283 44.658 203.283 46.366C203.283 48.074 201.967 49.278 200.147 49.278C198.327 49.278 197.025 48.074 197.025 46.366C197.025 44.658 198.327 43.454 200.147 43.454ZM200.147 44.42C198.985 44.42 198.131 45.218 198.131 46.366C198.131 47.5 198.985 48.312 200.147 48.312C201.309 48.312 202.163 47.5 202.163 46.366C202.163 45.218 201.309 44.42 200.147 44.42ZM199.545 39.562H200.707V42.054H199.545V39.562ZM210.142 40.696H218.29V41.662H210.142V40.696ZM208.938 49.362H220.376V50.328H208.938V49.362ZM213.376 44.84H214.538V49.838H213.376V44.84ZM217.856 40.696H219.004V41.956C219.004 43.524 219.004 45.26 218.542 47.822L217.38 47.668C217.856 45.246 217.856 43.468 217.856 41.956V40.696ZM234.939 39.422H236.101V52.106H234.939V39.422ZM229.423 40.402C231.299 40.402 232.643 42.124 232.643 44.812C232.643 47.514 231.299 49.236 229.423 49.236C227.561 49.236 226.217 47.514 226.217 44.812C226.217 42.124 227.561 40.402 229.423 40.402ZM229.423 41.452C228.191 41.452 227.323 42.768 227.323 44.812C227.323 46.87 228.191 48.214 229.423 48.214C230.669 48.214 231.523 46.87 231.523 44.812C231.523 42.768 230.669 41.452 229.423 41.452ZM241.994 40.402C243.856 40.402 245.172 42.124 245.172 44.812C245.172 47.514 243.856 49.236 241.994 49.236C240.132 49.236 238.816 47.514 238.816 44.812C238.816 42.124 240.132 40.402 241.994 40.402ZM241.994 41.452C240.762 41.452 239.922 42.768 239.922 44.812C239.922 46.87 240.762 48.214 241.994 48.214C243.212 48.214 244.066 46.87 244.066 44.812C244.066 42.768 243.212 41.452 241.994 41.452ZM248.042 42.614H250.366V43.594H248.042V42.614ZM248.042 46.38H250.366V47.36H248.042V46.38ZM247.188 39.436H248.364V52.092H247.188V39.436ZM260.725 39.436H261.887V52.092H260.725V39.436ZM257.015 40.794H258.163C258.163 44.462 256.511 47.668 252.283 49.74L251.667 48.802C255.321 47.038 257.015 44.35 257.015 40.99V40.794ZM252.241 40.794H257.519V41.746H252.241V40.794ZM264.377 45.316H275.857V46.198H264.377V45.316ZM265.735 47.22H274.415V49.922H266.925V51.406H265.777V49.124H273.281V48.046H265.735V47.22ZM265.777 51.098H274.821V51.938H265.777V51.098ZM265.833 39.8H274.373V42.432H267.009V43.804H265.861V41.648H273.239V40.626H265.833V39.8ZM265.861 43.524H274.611V44.364H265.861V43.524ZM284.428 40.724H285.38V41.746C285.38 44.056 283.952 46.03 281.838 46.814L281.236 45.89C283.126 45.218 284.428 43.538 284.428 41.746V40.724ZM284.652 40.724H285.59V41.746C285.59 43.37 286.822 44.952 288.656 45.596L288.068 46.52C286.01 45.764 284.652 43.86 284.652 41.746V40.724ZM287.97 42.726H290.784V43.692H287.97V42.726ZM281.6 40.304H288.362V41.242H281.6V40.304ZM283.168 47.696H291.61V52.092H290.448V48.648H283.168V47.696ZM290.448 39.436H291.61V47.01H290.448V39.436ZM299.799 40.234C302.431 40.234 304.391 41.634 304.391 43.734C304.391 45.848 302.431 47.234 299.799 47.234C297.167 47.234 295.193 45.848 295.193 43.734C295.193 41.634 297.167 40.234 299.799 40.234ZM299.799 41.186C297.797 41.186 296.313 42.208 296.313 43.734C296.313 45.246 297.797 46.282 299.799 46.282C301.801 46.282 303.285 45.246 303.285 43.734C303.285 42.208 301.801 41.186 299.799 41.186ZM294.087 49.446H305.553V50.426H294.087V49.446ZM311.95 43.958H314.372V44.924H311.95V43.958ZM309.584 40.626H310.494V43.034C310.494 45.68 309.388 48.242 307.54 49.376L306.812 48.494C308.548 47.472 309.584 45.204 309.584 43.034V40.626ZM309.808 40.626H310.704V42.992C310.704 45.022 311.656 47.178 313.322 48.186L312.65 49.096C310.83 47.976 309.808 45.456 309.808 42.992V40.626ZM316.598 39.436H317.718V52.092H316.598V39.436ZM314.036 39.702H315.128V51.462H314.036V39.702ZM322.645 45.946H323.793V49.74H322.645V45.946ZM327.321 45.946H328.483V49.74H327.321V45.946ZM319.845 49.516H331.311V50.482H319.845V49.516ZM325.557 40.234C328.231 40.234 330.149 41.508 330.149 43.496C330.149 45.47 328.231 46.744 325.557 46.744C322.869 46.744 320.951 45.47 320.951 43.496C320.951 41.508 322.869 40.234 325.557 40.234ZM325.557 41.158C323.527 41.158 322.071 42.082 322.071 43.496C322.071 44.896 323.527 45.82 325.557 45.82C327.587 45.82 329.029 44.896 329.029 43.496C329.029 42.082 327.587 41.158 325.557 41.158ZM333.952 51.0795C333.707 51.0795 333.497 50.9917 333.321 50.8161C333.145 50.6404 333.058 50.4299 333.058 50.1847C333.058 49.9394 333.145 49.7289 333.321 49.5533C333.497 49.3776 333.707 49.2898 333.952 49.2898C334.198 49.2898 334.408 49.3776 334.584 49.5533C334.759 49.7289 334.847 49.9394 334.847 50.1847C334.847 50.3471 334.806 50.4962 334.723 50.6321C334.643 50.768 334.536 50.8774 334.4 50.9602C334.267 51.0398 334.118 51.0795 333.952 51.0795Z" fill="black"/>
<defs>
<linearGradient id="paint0_linear_11_11" x1="0" y1="32" x2="920" y2="32" gradientUnits="userSpaceOnUse">
<stop stop-color="#EAEAEA"/>
<stop offset="1" stop-color="#C6C6C6"/>
</linearGradient>
</defs>
</svg>
