<svg width="609" height="600" viewBox="0 0 609 600" fill="none" xmlns="http://www.w3.org/2000/svg">
<rect width="609" height="600" fill="#F3F3F3"/>
<path d="M558 37C558 28.7157 551.284 22 543 22H235C226.716 22 220 28.7157 220 37V79C220 87.2843 226.716 94 235 94H558V37Z" fill="#FF7878"/>
<path d="M51 134C51 125.716 57.7157 119 66 119H374C382.284 119 389 125.716 389 134V176C389 184.284 382.284 191 374 191H51V134Z" fill="#32DC58"/>
<path d="M558 230C558 221.716 551.284 215 543 215H235C226.716 215 220 221.716 220 230V272C220 280.284 226.716 287 235 287H558V230Z" fill="#6067FF"/>
<path d="M558 424C558 415.716 551.284 409 543 409H235C226.716 409 220 415.716 220 424V466C220 474.284 226.716 481 235 481H558V424Z" fill="#FF8660"/>
<path d="M51 327C51 318.716 57.7157 312 66 312H374C382.284 312 389 318.716 389 327V369C389 377.284 382.284 384 374 384H51V327Z" fill="#FF6DF0"/>
<path d="M51 520C51 511.716 57.7157 505 66 505H374C382.284 505 389 511.716 389 520V562C389 570.284 382.284 577 374 577H51V520Z" fill="#FFE600"/>
</svg>
