<svg width="47" height="47" viewBox="0 0 47 47" fill="none" xmlns="http://www.w3.org/2000/svg">
<rect width="47" height="47" rx="5" fill="#19142D"/>
<rect width="47" height="47" rx="5" fill="#19142D"/>
<rect y="14.6875" width="32.3125" height="32.3125" rx="5" fill="url(#paint0_linear_19_30)"/>
<rect y="14.6875" width="32.3125" height="32.3125" rx="5" fill="url(#paint1_linear_19_30)"/>
<rect x="14.6875" width="32.3125" height="32.3125" rx="5" fill="url(#paint2_linear_19_30)"/>
<rect x="14.6875" width="32.3125" height="32.3125" rx="5" fill="url(#paint3_linear_19_30)"/>
<rect x="7.34375" y="7.34375" width="32.3125" height="32.3125" rx="5" fill="white"/>
<rect x="7.34375" y="7.34375" width="32.3125" height="32.3125" rx="5" fill="white"/>
<rect x="13.9531" y="13.2188" width="19.8281" height="19.8281" rx="5" fill="#35276D"/>
<rect x="13.9531" y="13.2188" width="19.8281" height="19.8281" rx="5" fill="#35276D"/>
<defs>
<linearGradient id="paint0_linear_19_30" x1="0" y1="30.8438" x2="32.3125" y2="30.8438" gradientUnits="userSpaceOnUse">
<stop offset="0.5" stop-color="#FF007A"/>
<stop offset="1" stop-color="#0500FF"/>
</linearGradient>
<linearGradient id="paint1_linear_19_30" x1="0" y1="30.8438" x2="32.3125" y2="30.8438" gradientUnits="userSpaceOnUse">
<stop offset="0.5" stop-color="#FF007A"/>
<stop offset="1" stop-color="#0500FF"/>
</linearGradient>
<linearGradient id="paint2_linear_19_30" x1="47" y1="16.1562" x2="14.6875" y2="16.1563" gradientUnits="userSpaceOnUse">
<stop offset="0.5" stop-color="#FF6B00"/>
<stop offset="1" stop-color="#FFF500"/>
</linearGradient>
<linearGradient id="paint3_linear_19_30" x1="47" y1="16.1562" x2="14.6875" y2="16.1563" gradientUnits="userSpaceOnUse">
<stop offset="0.5" stop-color="#FF6B00"/>
<stop offset="1" stop-color="#FFF500"/>
</linearGradient>
</defs>
</svg>
