<svg width="47" height="47" viewBox="0 0 47 47" fill="none" xmlns="http://www.w3.org/2000/svg">
<rect width="47" height="47" rx="5" fill="#19142D"/>
<path d="M10.8704 15C10.896 14.7188 10.8278 14.4986 10.6658 14.3395C10.5039 14.1776 10.2312 14.0966 9.84766 14.0966C9.60334 14.0966 9.39879 14.125 9.23402 14.1818C9.07209 14.2386 8.94567 14.3168 8.85476 14.4162C8.76669 14.5156 8.71129 14.6307 8.68857 14.7614C8.663 14.8636 8.66442 14.9574 8.69283 15.0426C8.72408 15.125 8.78232 15.2003 8.86754 15.2685C8.95561 15.3366 9.07067 15.3977 9.21271 15.4517C9.3576 15.5057 9.52947 15.554 9.72834 15.5966L10.4102 15.75C10.8761 15.8523 11.2667 15.9872 11.582 16.1548C11.9002 16.3196 12.1502 16.5156 12.332 16.7429C12.5138 16.9702 12.6332 17.2244 12.69 17.5057C12.7496 17.7869 12.7511 18.0937 12.6942 18.4261C12.5977 19 12.3746 19.4858 12.0252 19.8835C11.6758 20.2812 11.2198 20.5838 10.6573 20.7912C10.0948 20.9986 9.44425 21.1023 8.70561 21.1023C7.94993 21.1023 7.30788 20.9901 6.77947 20.7656C6.25391 20.5384 5.87322 20.1918 5.63743 19.7259C5.40447 19.2571 5.34766 18.6591 5.46697 17.9318H7.71697C7.68288 18.1989 7.71129 18.4233 7.8022 18.6051C7.89311 18.7869 8.03942 18.9247 8.24112 19.0185C8.44283 19.1122 8.69425 19.1591 8.99538 19.1591C9.25107 19.1591 9.46982 19.1278 9.65163 19.0653C9.83345 19.0028 9.97692 18.9162 10.082 18.8054C10.1871 18.6946 10.2511 18.5682 10.2738 18.4261C10.2965 18.2955 10.2738 18.179 10.2056 18.0767C10.1374 17.9744 10.0138 17.8821 9.83487 17.7997C9.65589 17.7173 9.41016 17.642 9.09766 17.5739L8.26243 17.3864C7.52095 17.2159 6.96129 16.9347 6.58345 16.5426C6.20561 16.1506 6.07209 15.6136 6.18288 14.9318C6.27379 14.375 6.50249 13.8892 6.86896 13.4744C7.23828 13.0568 7.70703 12.733 8.27521 12.5028C8.84624 12.2699 9.47834 12.1534 10.1715 12.1534C10.8761 12.1534 11.4656 12.2713 11.94 12.5071C12.4173 12.7429 12.7596 13.0739 12.967 13.5C13.1772 13.9261 13.234 14.4261 13.1374 15H10.8704ZM16.3398 21.1193C15.6296 21.1193 15.0444 20.9787 14.5842 20.6974C14.1239 20.4134 13.8015 20.0185 13.6168 19.5128C13.4322 19.0043 13.3967 18.4148 13.5103 17.7443C13.6183 17.0739 13.8484 16.4858 14.2006 15.9801C14.5558 15.4716 15.0103 15.0767 15.5643 14.7955C16.1211 14.5114 16.7546 14.3693 17.4648 14.3693C18.1069 14.3693 18.6424 14.4858 19.0714 14.7188C19.5032 14.9489 19.8114 15.2756 19.9961 15.6989C20.1836 16.1193 20.2319 16.6136 20.141 17.1818H17.9592C17.9847 16.8409 17.9293 16.5795 17.793 16.3977C17.6594 16.2159 17.4648 16.125 17.2092 16.125C16.9989 16.125 16.8058 16.1847 16.6296 16.304C16.4563 16.4205 16.3072 16.598 16.1822 16.8366C16.06 17.0724 15.9705 17.3693 15.9137 17.7273C15.8569 18.0852 15.8498 18.3835 15.8924 18.6222C15.9379 18.858 16.0259 19.0355 16.1566 19.1548C16.2901 19.2713 16.4592 19.3295 16.6637 19.3295C16.8398 19.3295 17.0018 19.2898 17.1495 19.2102C17.3001 19.1278 17.4293 19.0085 17.5373 18.8523C17.6481 18.6932 17.7319 18.5 17.7887 18.2727H19.9705C19.8626 18.8523 19.6452 19.3551 19.3185 19.7812C18.9918 20.2074 18.5756 20.5369 18.07 20.7699C17.5643 21.0028 16.9876 21.1193 16.3398 21.1193ZM20.4808 21L21.5717 14.4545H23.8558L23.6513 15.6989H23.7195C23.9155 15.2386 24.1612 14.902 24.4567 14.6889C24.7521 14.4759 25.0746 14.3693 25.424 14.3693C25.5263 14.3693 25.6243 14.3778 25.718 14.3949C25.8146 14.4091 25.9098 14.429 26.0036 14.4545L25.6626 16.4659C25.5518 16.4233 25.4141 16.3935 25.2493 16.3764C25.0845 16.3565 24.9382 16.3466 24.8104 16.3466C24.5831 16.3466 24.37 16.3991 24.1712 16.5043C23.9751 16.6065 23.8075 16.7514 23.6683 16.9389C23.532 17.1236 23.4411 17.3409 23.3956 17.5909L22.8331 21H20.4808ZM25.6839 21L26.7749 14.4545H29.1271L28.0362 21H25.6839ZM28.0533 13.7727C27.7351 13.7727 27.478 13.6676 27.282 13.4574C27.0859 13.2443 27.0135 12.9915 27.0646 12.6989C27.1158 12.4006 27.272 12.1477 27.5334 11.9403C27.7947 11.7301 28.0845 11.625 28.4027 11.625C28.7237 11.625 28.9794 11.7301 29.1697 11.9403C29.3601 12.1477 29.4311 12.4006 29.3828 12.6989C29.3374 12.9915 29.1839 13.2443 28.9226 13.4574C28.6641 13.6676 28.3743 13.7727 28.0533 13.7727ZM28.8427 23.4545L30.3512 14.4545H32.6864L32.4989 15.5966H32.5501C32.6694 15.375 32.8256 15.1719 33.0188 14.9872C33.2148 14.7997 33.445 14.6506 33.7092 14.5398C33.9762 14.4261 34.2717 14.3693 34.5955 14.3693C35.0273 14.3693 35.418 14.4844 35.7674 14.7145C36.1168 14.9446 36.3739 15.3068 36.5387 15.8011C36.7035 16.2955 36.7205 16.9375 36.5898 17.7273C36.4648 18.483 36.2418 19.1094 35.9208 19.6065C35.6026 20.1037 35.2276 20.4744 34.7958 20.7188C34.3668 20.9631 33.9194 21.0852 33.4535 21.0852C33.1467 21.0852 32.881 21.0355 32.6566 20.9361C32.4322 20.8338 32.2518 20.696 32.1154 20.5227C31.979 20.3466 31.8853 20.1477 31.8342 19.9261H31.783L31.2035 23.4545H28.8427ZM32.1069 17.7273C32.0558 18.0455 32.0515 18.321 32.0941 18.554C32.1396 18.7841 32.229 18.9631 32.3626 19.0909C32.4989 19.2159 32.6751 19.2784 32.891 19.2784C33.1069 19.2784 33.3001 19.2173 33.4705 19.0952C33.641 18.9702 33.7859 18.7926 33.9052 18.5625C34.0245 18.3295 34.1126 18.0511 34.1694 17.7273C34.2205 17.4034 34.2248 17.1264 34.1822 16.8963C34.1396 16.6634 34.0529 16.4858 33.9222 16.3636C33.7915 16.2386 33.6183 16.1761 33.4023 16.1761C33.1864 16.1761 32.989 16.2386 32.81 16.3636C32.6339 16.4858 32.4847 16.6634 32.3626 16.8963C32.2433 17.1264 32.158 17.4034 32.1069 17.7273ZM42.022 14.4545L41.7322 16.1591H37.4197L37.7095 14.4545H42.022ZM38.8004 12.8864H41.1527L40.1555 18.8949C40.1413 18.9858 40.1442 19.0625 40.1641 19.125C40.1839 19.1847 40.2237 19.2301 40.2834 19.2614C40.3459 19.2898 40.4283 19.304 40.5305 19.304C40.5987 19.304 40.6825 19.2955 40.782 19.2784C40.8814 19.2585 40.9567 19.2443 41.0078 19.2358L41.076 20.8892C40.9567 20.9233 40.7962 20.9616 40.5945 21.0043C40.3956 21.0497 40.1641 21.0795 39.8999 21.0938C39.3487 21.1193 38.8999 21.0611 38.5533 20.919C38.2095 20.777 37.9709 20.5554 37.8374 20.2543C37.7067 19.9503 37.6839 19.571 37.7692 19.1165L38.8004 12.8864ZM7.38033 36L8.82919 27.2727H12.5962C13.244 27.2727 13.7894 27.4006 14.2326 27.6562C14.6758 27.9119 14.994 28.2713 15.1871 28.7344C15.3803 29.1974 15.4258 29.7386 15.3235 30.358C15.2212 30.9886 14.994 31.5327 14.6417 31.9901C14.2923 32.4446 13.8462 32.7955 13.3036 33.0426C12.7638 33.2869 12.1587 33.4091 11.4883 33.4091H9.23828L9.5451 31.5682H11.3178C11.6019 31.5682 11.8519 31.5199 12.0678 31.4233C12.2837 31.3239 12.4585 31.1847 12.592 31.0057C12.7255 30.8239 12.8121 30.608 12.8519 30.358C12.8917 30.108 12.8732 29.8949 12.7965 29.7188C12.7227 29.5398 12.5948 29.4034 12.413 29.3097C12.234 29.2131 12.0053 29.1648 11.7269 29.1648H10.8917L9.74964 36H7.38033ZM16.8033 36.1023C16.3885 36.1023 16.032 36.0341 15.7337 35.8977C15.4382 35.7585 15.2223 35.5483 15.0859 35.267C14.9524 34.983 14.9226 34.625 14.9964 34.1932C15.0561 33.8352 15.1683 33.5298 15.3331 33.277C15.4979 33.0241 15.7024 32.8168 15.9467 32.6548C16.1911 32.4929 16.4652 32.3693 16.7692 32.2841C17.076 32.196 17.3999 32.1392 17.7408 32.1136C18.1101 32.0852 18.4098 32.0497 18.6399 32.0071C18.87 31.9645 19.0419 31.9062 19.1555 31.8324C19.2692 31.7585 19.3374 31.6591 19.3601 31.5341V31.517C19.3857 31.3466 19.3402 31.2159 19.2237 31.125C19.1101 31.0341 18.951 30.9886 18.7464 30.9886C18.5249 30.9886 18.3331 31.0369 18.1712 31.1335C18.0121 31.2301 17.9027 31.3807 17.843 31.5852H15.6783C15.7692 31.1875 15.9553 30.821 16.2365 30.4858C16.5206 30.1477 16.897 29.8778 17.3658 29.6761C17.8374 29.4716 18.3999 29.3693 19.0533 29.3693C19.5192 29.3693 19.9283 29.4247 20.2805 29.5355C20.6328 29.6435 20.924 29.7955 21.1541 29.9915C21.3871 30.1847 21.5504 30.4119 21.6442 30.6733C21.7408 30.9318 21.7635 31.2131 21.7124 31.517L20.9624 36H18.7635L18.9169 35.0795H18.8658C18.6953 35.3239 18.5036 35.5213 18.2905 35.6719C18.0803 35.8224 17.8501 35.9318 17.6001 36C17.353 36.0682 17.0874 36.1023 16.8033 36.1023ZM17.826 34.6193C18.0021 34.6193 18.1754 34.5824 18.3459 34.5085C18.5163 34.4347 18.6626 34.3281 18.7848 34.1889C18.907 34.0497 18.9851 33.8807 19.0192 33.6818L19.1044 33.1364C19.0419 33.1619 18.9723 33.1861 18.8956 33.2088C18.8217 33.2287 18.7436 33.2486 18.6612 33.2685C18.5817 33.2884 18.4964 33.3068 18.4055 33.3239C18.3175 33.3409 18.2266 33.358 18.1328 33.375C17.9453 33.4034 17.7876 33.4503 17.6598 33.5156C17.532 33.5781 17.4325 33.6562 17.3615 33.75C17.2905 33.8409 17.2464 33.9432 17.2294 34.0568C17.2038 34.2358 17.245 34.375 17.353 34.4744C17.4638 34.571 17.6214 34.6193 17.826 34.6193ZM22.0863 36L23.1772 29.4545H25.4613L25.2567 30.6989H25.3249C25.521 30.2386 25.7667 29.902 26.0621 29.6889C26.3576 29.4759 26.68 29.3693 27.0295 29.3693C27.1317 29.3693 27.2298 29.3778 27.3235 29.3949C27.4201 29.4091 27.5153 29.429 27.609 29.4545L27.2681 31.4659C27.1573 31.4233 27.0195 31.3935 26.8548 31.3764C26.69 31.3565 26.5437 31.3466 26.4158 31.3466C26.1886 31.3466 25.9755 31.3991 25.7766 31.5043C25.5806 31.6065 25.413 31.7514 25.2738 31.9389C25.1374 32.1236 25.0465 32.3409 25.0011 32.5909L24.4386 36H22.0863ZM32.5533 29.4545L32.2635 31.1591H27.951L28.2408 29.4545H32.5533ZM29.3317 27.8864H31.6839L30.6868 33.8949C30.6726 33.9858 30.6754 34.0625 30.6953 34.125C30.7152 34.1847 30.755 34.2301 30.8146 34.2614C30.8771 34.2898 30.9595 34.304 31.0618 34.304C31.13 34.304 31.2138 34.2955 31.3132 34.2784C31.4126 34.2585 31.4879 34.2443 31.5391 34.2358L31.6072 35.8892C31.4879 35.9233 31.3274 35.9616 31.1257 36.0043C30.9268 36.0497 30.6953 36.0795 30.4311 36.0938C29.88 36.1193 29.4311 36.0611 29.0845 35.919C28.7408 35.777 28.5021 35.5554 28.3686 35.2543C28.2379 34.9503 28.2152 34.571 28.3004 34.1165L29.3317 27.8864ZM33.4535 38.4545C33.1808 38.4545 32.9265 38.4332 32.6907 38.3906C32.4549 38.3509 32.2489 38.2955 32.0728 38.2244L32.8654 36.554C33.0472 36.6222 33.2148 36.6662 33.3683 36.6861C33.5245 36.706 33.6623 36.6946 33.7816 36.652C33.9009 36.6094 33.9989 36.5284 34.0756 36.4091L34.1523 36.2898L32.9847 29.4545H35.354L35.6523 33.9886H35.7205L37.5529 29.4545H40.1097L36.5472 36.5455C36.3654 36.9062 36.1381 37.2301 35.8654 37.517C35.5955 37.8068 35.2631 38.0355 34.8683 38.2031C34.4734 38.3707 34.0018 38.4545 33.4535 38.4545Z" fill="url(#paint0_linear_22_30)"/>
<defs>
<linearGradient id="paint0_linear_22_30" x1="23.5" y1="9" x2="23.5" y2="39" gradientUnits="userSpaceOnUse">
<stop stop-color="#325FFF"/>
<stop offset="0.5" stop-color="#FB2DFF"/>
<stop offset="1" stop-color="#A531FF"/>
</linearGradient>
</defs>
</svg>
