<svg width="173" height="83" viewBox="0 0 173 83" fill="none" xmlns="http://www.w3.org/2000/svg">
<path d="M116.642 30C116.778 28.5 116.415 27.3258 115.551 26.4773C114.688 25.6136 113.233 25.1818 111.188 25.1818C109.884 25.1818 108.794 25.3333 107.915 25.6364C107.051 25.9394 106.377 26.3561 105.892 26.8864C105.422 27.4167 105.127 28.0303 105.006 28.7273C104.869 29.2727 104.877 29.7727 105.028 30.2273C105.195 30.6667 105.506 31.0682 105.96 31.4318C106.43 31.7955 107.044 32.1212 107.801 32.4091C108.574 32.697 109.491 32.9545 110.551 33.1818L114.188 34C116.672 34.5455 118.756 35.2652 120.438 36.1591C122.134 37.0379 123.468 38.0833 124.438 39.2955C125.407 40.5076 126.044 41.8636 126.347 43.3636C126.665 44.8636 126.672 46.5 126.369 48.2727C125.854 51.3333 124.665 53.9242 122.801 56.0455C120.938 58.1667 118.506 59.7803 115.506 60.8864C112.506 61.9924 109.036 62.5455 105.097 62.5455C101.066 62.5455 97.642 61.947 94.8239 60.75C92.0208 59.5379 89.9905 57.6894 88.733 55.2045C87.4905 52.7045 87.1875 49.5152 87.8239 45.6364H99.8239C99.642 47.0606 99.7936 48.2576 100.278 49.2273C100.763 50.197 101.544 50.9318 102.619 51.4318C103.695 51.9318 105.036 52.1818 106.642 52.1818C108.006 52.1818 109.172 52.0152 110.142 51.6818C111.112 51.3485 111.877 50.8864 112.438 50.2955C112.998 49.7045 113.339 49.0303 113.46 48.2727C113.581 47.5758 113.46 46.9545 113.097 46.4091C112.733 45.8636 112.074 45.3712 111.119 44.9318C110.165 44.4924 108.854 44.0909 107.188 43.7273L102.733 42.7273C98.7784 41.8182 95.7936 40.3182 93.7784 38.2273C91.7633 36.1364 91.0511 33.2727 91.642 29.6364C92.1269 26.6667 93.3466 24.0758 95.3011 21.8636C97.2708 19.6364 99.7708 17.9091 102.801 16.6818C105.847 15.4394 109.218 14.8182 112.915 14.8182C116.672 14.8182 119.816 15.447 122.347 16.7045C124.892 17.9621 126.718 19.7273 127.824 22C128.945 24.2727 129.248 26.9394 128.733 30H116.642ZM128.903 62L136.631 15.4545H156.722C160.176 15.4545 163.085 16.1364 165.449 17.5C167.813 18.8636 169.509 20.7803 170.54 23.25C171.57 25.7197 171.813 28.6061 171.267 31.9091C170.722 35.2727 169.509 38.1742 167.631 40.6136C165.767 43.0379 163.388 44.9091 160.494 46.2273C157.616 47.5303 154.388 48.1818 150.812 48.1818H138.812L140.449 38.3636H149.903C151.419 38.3636 152.752 38.1061 153.903 37.5909C155.055 37.0606 155.987 36.3182 156.699 35.3636C157.411 34.3939 157.873 33.2424 158.085 31.9091C158.297 30.5758 158.199 29.4394 157.79 28.5C157.396 27.5455 156.714 26.8182 155.744 26.3182C154.79 25.803 153.57 25.5455 152.085 25.5455H147.631L141.54 62H128.903Z" fill="url(#paint0_linear_35_31)"/>
<path d="M35.5 12L66.2439 65.25H4.7561L35.5 12Z" fill="#00FFC2"/>
<defs>
<linearGradient id="paint0_linear_35_31" x1="128.5" y1="0" x2="128.5" y2="77" gradientUnits="userSpaceOnUse">
<stop stop-color="#5E5E5E"/>
</linearGradient>
</defs>
</svg>
