<svg width="831" height="51" viewBox="0 0 831 51" fill="none" xmlns="http://www.w3.org/2000/svg">
<path d="M0.309659 50L8.03693 3.45454H40.7642L39.0369 13.6364H18.946L17.6733 21.6364H35.7642L34.0369 31.8182H15.946L12.946 50H0.309659ZM37.8665 50L43.6847 15.0909H56.2301L50.4119 50H37.8665ZM50.5028 11.4545C48.8059 11.4545 47.4347 10.8939 46.3892 9.77273C45.3438 8.63636 44.9574 7.28788 45.2301 5.72727C45.5028 4.13636 46.3362 2.78788 47.7301 1.68182C49.1241 0.560605 50.6695 0 52.3665 0C54.0786 0 55.4422 0.560605 56.4574 1.68182C57.4725 2.78788 57.8513 4.13636 57.5938 5.72727C57.3513 7.28788 56.5331 8.63636 55.1392 9.77273C53.7604 10.8939 52.215 11.4545 50.5028 11.4545ZM72.7131 30.3636L69.4403 50H56.8949L62.7131 15.0909H74.6222L73.5312 21.7273H73.8949C75.0009 19.5 76.6146 17.7652 78.7358 16.5227C80.8722 15.2652 83.2282 14.6364 85.804 14.6364C88.2737 14.6364 90.3267 15.197 91.9631 16.3182C93.5994 17.4394 94.7585 18.9848 95.4403 20.9545C96.1222 22.9242 96.2434 25.1818 95.804 27.7273L92.0767 50H79.5312L82.804 30.3636C83.0919 28.6364 82.8797 27.2803 82.1676 26.2955C81.4706 25.3106 80.3191 24.8182 78.7131 24.8182C77.6979 24.8182 76.7661 25.0455 75.9176 25.5C75.0843 25.9394 74.3873 26.5758 73.8267 27.4091C73.2813 28.2273 72.91 29.2121 72.7131 30.3636ZM110.77 50.4545C108.285 50.4545 106.103 49.803 104.224 48.5C102.361 47.197 101.02 45.2197 100.202 42.5682C99.3987 39.9167 99.3305 36.5758 99.9972 32.5455C100.694 28.3333 101.914 24.9091 103.656 22.2727C105.414 19.6364 107.429 17.7045 109.702 16.4773C111.99 15.25 114.285 14.6364 116.588 14.6364C118.315 14.6364 119.777 14.9394 120.974 15.5455C122.187 16.1364 123.149 16.9318 123.861 17.9318C124.573 18.9167 125.058 20 125.315 21.1818H125.497L128.452 3.45454H140.997L133.27 50H120.815L121.77 44.2727H121.497C120.815 45.4545 119.944 46.5152 118.884 47.4545C117.838 48.3788 116.634 49.1136 115.27 49.6591C113.906 50.1894 112.406 50.4545 110.77 50.4545ZM116.997 40.8182C118.149 40.8182 119.194 40.4848 120.134 39.8182C121.073 39.1364 121.868 38.1818 122.52 36.9545C123.171 35.7121 123.634 34.2424 123.906 32.5455C124.194 30.8182 124.217 29.3409 123.974 28.1136C123.732 26.8712 123.247 25.9242 122.52 25.2727C121.808 24.6061 120.876 24.2727 119.724 24.2727C118.573 24.2727 117.535 24.6061 116.611 25.2727C115.687 25.9242 114.906 26.8712 114.27 28.1136C113.649 29.3409 113.194 30.8182 112.906 32.5455C112.618 34.2727 112.58 35.7576 112.793 37C113.02 38.2273 113.49 39.1742 114.202 39.8409C114.914 40.4924 115.846 40.8182 116.997 40.8182ZM178.815 15.0909L177.27 24.1818H154.27L155.815 15.0909H178.815ZM161.634 6.72727H174.179L168.861 38.7727C168.785 39.2576 168.8 39.6667 168.906 40C169.012 40.3182 169.224 40.5606 169.543 40.7273C169.876 40.8788 170.315 40.9545 170.861 40.9545C171.224 40.9545 171.671 40.9091 172.202 40.8182C172.732 40.7121 173.134 40.6364 173.406 40.5909L173.77 49.4091C173.134 49.5909 172.277 49.7955 171.202 50.0227C170.141 50.2652 168.906 50.4242 167.497 50.5C164.558 50.6364 162.164 50.3258 160.315 49.5682C158.482 48.8106 157.209 47.6288 156.497 46.0227C155.8 44.4015 155.679 42.3788 156.134 39.9545L161.634 6.72727ZM194.776 30.3636L191.503 50H178.957L186.685 3.45454H198.776L195.776 21.7273H196.139C197.276 19.5 198.866 17.7652 200.912 16.5227C202.957 15.2652 205.276 14.6364 207.866 14.6364C210.321 14.6364 212.366 15.197 214.003 16.3182C215.639 17.4394 216.798 18.9848 217.48 20.9545C218.162 22.9242 218.291 25.1818 217.866 27.7273L214.139 50H201.594L204.866 30.3636C205.139 28.6364 204.92 27.2803 204.207 26.2955C203.51 25.3106 202.366 24.8182 200.776 24.8182C199.745 24.8182 198.806 25.0455 197.957 25.5C197.124 25.9394 196.427 26.5758 195.866 27.4091C195.321 28.2273 194.957 29.2121 194.776 30.3636ZM236.878 50.6364C233.151 50.6364 230.06 49.9242 227.605 48.5C225.151 47.0606 223.423 45 222.423 42.3182C221.423 39.6212 221.241 36.3939 221.878 32.6364C222.484 29.0303 223.734 25.8788 225.628 23.1818C227.537 20.4848 229.938 18.3864 232.832 16.8864C235.741 15.3864 238.999 14.6364 242.605 14.6364C245.241 14.6364 247.552 15.0455 249.537 15.8636C251.537 16.6818 253.166 17.8712 254.423 19.4318C255.681 20.9924 256.529 22.8788 256.969 25.0909C257.423 27.2879 257.423 29.7727 256.969 32.5455L256.514 35.4545H225.332L226.423 28.5455H246.06C246.211 27.5455 246.113 26.6667 245.764 25.9091C245.431 25.1364 244.893 24.5379 244.151 24.1136C243.423 23.6742 242.545 23.4545 241.514 23.4545C240.484 23.4545 239.514 23.6742 238.605 24.1136C237.711 24.553 236.946 25.1667 236.31 25.9545C235.688 26.7424 235.272 27.6667 235.06 28.7273L233.696 36C233.514 37.1212 233.582 38.1212 233.901 39C234.219 39.8788 234.772 40.5682 235.56 41.0682C236.348 41.5682 237.363 41.8182 238.605 41.8182C239.454 41.8182 240.257 41.7045 241.014 41.4773C241.787 41.2348 242.469 40.8864 243.06 40.4318C243.666 39.9621 244.151 39.3939 244.514 38.7273H255.969C255.151 41.1515 253.855 43.2576 252.082 45.0455C250.325 46.8182 248.158 48.197 245.582 49.1818C243.022 50.1515 240.12 50.6364 236.878 50.6364ZM287.838 30.3636L284.565 50H272.02L279.747 3.45454H291.838L288.838 21.7273H289.202C290.338 19.5 291.929 17.7652 293.974 16.5227C296.02 15.2652 298.338 14.6364 300.929 14.6364C303.384 14.6364 305.429 15.197 307.065 16.3182C308.702 17.4394 309.861 18.9848 310.543 20.9545C311.224 22.9242 311.353 25.1818 310.929 27.7273L307.202 50H294.656L297.929 30.3636C298.202 28.6364 297.982 27.2803 297.27 26.2955C296.573 25.3106 295.429 24.8182 293.838 24.8182C292.808 24.8182 291.868 25.0455 291.02 25.5C290.187 25.9394 289.49 26.5758 288.929 27.4091C288.384 28.2273 288.02 29.2121 287.838 30.3636ZM313.304 50L319.122 15.0909H331.668L325.849 50H313.304ZM325.94 11.4545C324.243 11.4545 322.872 10.8939 321.827 9.77273C320.781 8.63636 320.395 7.28788 320.668 5.72727C320.94 4.13636 321.774 2.78788 323.168 1.68182C324.562 0.560605 326.107 0 327.804 0C329.516 0 330.88 0.560605 331.895 1.68182C332.91 2.78788 333.289 4.13636 333.031 5.72727C332.789 7.28788 331.971 8.63636 330.577 9.77273C329.198 10.8939 327.652 11.4545 325.94 11.4545ZM344.832 50.4545C342.348 50.4545 340.166 49.803 338.287 48.5C336.423 47.197 335.082 45.2197 334.264 42.5682C333.461 39.9167 333.393 36.5758 334.06 32.5455C334.757 28.3333 335.976 24.9091 337.719 22.2727C339.476 19.6364 341.491 17.7045 343.764 16.4773C346.052 15.25 348.348 14.6364 350.651 14.6364C352.378 14.6364 353.84 14.9394 355.037 15.5455C356.249 16.1364 357.211 16.9318 357.923 17.9318C358.635 18.9167 359.12 20 359.378 21.1818H359.56L362.514 3.45454H375.06L367.332 50H354.878L355.832 44.2727H355.56C354.878 45.4545 354.007 46.5152 352.946 47.4545C351.901 48.3788 350.696 49.1136 349.332 49.6591C347.969 50.1894 346.469 50.4545 344.832 50.4545ZM351.06 40.8182C352.211 40.8182 353.257 40.4848 354.196 39.8182C355.135 39.1364 355.931 38.1818 356.582 36.9545C357.234 35.7121 357.696 34.2424 357.969 32.5455C358.257 30.8182 358.279 29.3409 358.037 28.1136C357.795 26.8712 357.31 25.9242 356.582 25.2727C355.87 24.6061 354.938 24.2727 353.787 24.2727C352.635 24.2727 351.598 24.6061 350.673 25.2727C349.749 25.9242 348.969 26.8712 348.332 28.1136C347.711 29.3409 347.257 30.8182 346.969 32.5455C346.681 34.2727 346.643 35.7576 346.855 37C347.082 38.2273 347.552 39.1742 348.264 39.8409C348.976 40.4924 349.908 40.8182 351.06 40.8182ZM386.082 50.4545C383.598 50.4545 381.416 49.803 379.537 48.5C377.673 47.197 376.332 45.2197 375.514 42.5682C374.711 39.9167 374.643 36.5758 375.31 32.5455C376.007 28.3333 377.226 24.9091 378.969 22.2727C380.726 19.6364 382.741 17.7045 385.014 16.4773C387.302 15.25 389.598 14.6364 391.901 14.6364C393.628 14.6364 395.09 14.9394 396.287 15.5455C397.499 16.1364 398.461 16.9318 399.173 17.9318C399.885 18.9167 400.37 20 400.628 21.1818H400.81L403.764 3.45454H416.31L408.582 50H396.128L397.082 44.2727H396.81C396.128 45.4545 395.257 46.5152 394.196 47.4545C393.151 48.3788 391.946 49.1136 390.582 49.6591C389.219 50.1894 387.719 50.4545 386.082 50.4545ZM392.31 40.8182C393.461 40.8182 394.507 40.4848 395.446 39.8182C396.385 39.1364 397.181 38.1818 397.832 36.9545C398.484 35.7121 398.946 34.2424 399.219 32.5455C399.507 30.8182 399.529 29.3409 399.287 28.1136C399.045 26.8712 398.56 25.9242 397.832 25.2727C397.12 24.6061 396.188 24.2727 395.037 24.2727C393.885 24.2727 392.848 24.6061 391.923 25.2727C390.999 25.9242 390.219 26.8712 389.582 28.1136C388.961 29.3409 388.507 30.8182 388.219 32.5455C387.931 34.2727 387.893 35.7576 388.105 37C388.332 38.2273 388.802 39.1742 389.514 39.8409C390.226 40.4924 391.158 40.8182 392.31 40.8182ZM431.378 50.6364C427.651 50.6364 424.56 49.9242 422.105 48.5C419.651 47.0606 417.923 45 416.923 42.3182C415.923 39.6212 415.741 36.3939 416.378 32.6364C416.984 29.0303 418.234 25.8788 420.128 23.1818C422.037 20.4848 424.438 18.3864 427.332 16.8864C430.241 15.3864 433.499 14.6364 437.105 14.6364C439.741 14.6364 442.052 15.0455 444.037 15.8636C446.037 16.6818 447.666 17.8712 448.923 19.4318C450.181 20.9924 451.029 22.8788 451.469 25.0909C451.923 27.2879 451.923 29.7727 451.469 32.5455L451.014 35.4545H419.832L420.923 28.5455H440.56C440.711 27.5455 440.613 26.6667 440.264 25.9091C439.931 25.1364 439.393 24.5379 438.651 24.1136C437.923 23.6742 437.045 23.4545 436.014 23.4545C434.984 23.4545 434.014 23.6742 433.105 24.1136C432.211 24.553 431.446 25.1667 430.81 25.9545C430.188 26.7424 429.772 27.6667 429.56 28.7273L428.196 36C428.014 37.1212 428.082 38.1212 428.401 39C428.719 39.8788 429.272 40.5682 430.06 41.0682C430.848 41.5682 431.863 41.8182 433.105 41.8182C433.954 41.8182 434.757 41.7045 435.514 41.4773C436.287 41.2348 436.969 40.8864 437.56 40.4318C438.166 39.9621 438.651 39.3939 439.014 38.7273H450.469C449.651 41.1515 448.355 43.2576 446.582 45.0455C444.825 46.8182 442.658 48.197 440.082 49.1818C437.522 50.1515 434.62 50.6364 431.378 50.6364ZM469.588 30.3636L466.315 50H453.77L459.588 15.0909H471.497L470.406 21.7273H470.77C471.876 19.5 473.49 17.7652 475.611 16.5227C477.747 15.2652 480.103 14.6364 482.679 14.6364C485.149 14.6364 487.202 15.197 488.838 16.3182C490.474 17.4394 491.634 18.9848 492.315 20.9545C492.997 22.9242 493.118 25.1818 492.679 27.7273L488.952 50H476.406L479.679 30.3636C479.967 28.6364 479.755 27.2803 479.043 26.2955C478.346 25.3106 477.194 24.8182 475.588 24.8182C474.573 24.8182 473.641 25.0455 472.793 25.5C471.959 25.9394 471.262 26.5758 470.702 27.4091C470.156 28.2273 469.785 29.2121 469.588 30.3636ZM524.44 50.6364C520.713 50.6364 517.622 49.9242 515.168 48.5C512.713 47.0606 510.986 45 509.986 42.3182C508.986 39.6212 508.804 36.3939 509.44 32.6364C510.046 29.0303 511.296 25.8788 513.19 23.1818C515.099 20.4848 517.501 18.3864 520.395 16.8864C523.304 15.3864 526.562 14.6364 530.168 14.6364C532.804 14.6364 535.115 15.0455 537.099 15.8636C539.099 16.6818 540.728 17.8712 541.986 19.4318C543.243 20.9924 544.092 22.8788 544.531 25.0909C544.986 27.2879 544.986 29.7727 544.531 32.5455L544.077 35.4545H512.895L513.986 28.5455H533.622C533.774 27.5455 533.675 26.6667 533.327 25.9091C532.993 25.1364 532.455 24.5379 531.713 24.1136C530.986 23.6742 530.107 23.4545 529.077 23.4545C528.046 23.4545 527.077 23.6742 526.168 24.1136C525.274 24.553 524.509 25.1667 523.872 25.9545C523.251 26.7424 522.834 27.6667 522.622 28.7273L521.259 36C521.077 37.1212 521.145 38.1212 521.463 39C521.781 39.8788 522.334 40.5682 523.122 41.0682C523.91 41.5682 524.925 41.8182 526.168 41.8182C527.016 41.8182 527.819 41.7045 528.577 41.4773C529.349 41.2348 530.031 40.8864 530.622 40.4318C531.228 39.9621 531.713 39.3939 532.077 38.7273H543.531C542.713 41.1515 541.418 43.2576 539.645 45.0455C537.887 46.8182 535.721 48.197 533.145 49.1818C530.584 50.1515 527.683 50.6364 524.44 50.6364ZM567.014 3.45454L559.287 50H546.741L554.469 3.45454H567.014ZM582.315 50.6364C578.588 50.6364 575.497 49.9242 573.043 48.5C570.588 47.0606 568.861 45 567.861 42.3182C566.861 39.6212 566.679 36.3939 567.315 32.6364C567.921 29.0303 569.171 25.8788 571.065 23.1818C572.974 20.4848 575.376 18.3864 578.27 16.8864C581.179 15.3864 584.437 14.6364 588.043 14.6364C590.679 14.6364 592.99 15.0455 594.974 15.8636C596.974 16.6818 598.603 17.8712 599.861 19.4318C601.118 20.9924 601.967 22.8788 602.406 25.0909C602.861 27.2879 602.861 29.7727 602.406 32.5455L601.952 35.4545H570.77L571.861 28.5455H591.497C591.649 27.5455 591.55 26.6667 591.202 25.9091C590.868 25.1364 590.33 24.5379 589.588 24.1136C588.861 23.6742 587.982 23.4545 586.952 23.4545C585.921 23.4545 584.952 23.6742 584.043 24.1136C583.149 24.553 582.384 25.1667 581.747 25.9545C581.126 26.7424 580.709 27.6667 580.497 28.7273L579.134 36C578.952 37.1212 579.02 38.1212 579.338 39C579.656 39.8788 580.209 40.5682 580.997 41.0682C581.785 41.5682 582.8 41.8182 584.043 41.8182C584.891 41.8182 585.694 41.7045 586.452 41.4773C587.224 41.2348 587.906 40.8864 588.497 40.4318C589.103 39.9621 589.588 39.3939 589.952 38.7273H601.406C600.588 41.1515 599.293 43.2576 597.52 45.0455C595.762 46.8182 593.596 48.197 591.02 49.1818C588.459 50.1515 585.558 50.6364 582.315 50.6364ZM604.707 50L610.526 15.0909H622.435L621.344 21.7273H621.707C622.783 19.5455 624.306 17.8182 626.276 16.5455C628.245 15.2727 630.45 14.6364 632.889 14.6364C635.329 14.6364 637.329 15.2879 638.889 16.5909C640.45 17.8788 641.238 19.5909 641.253 21.7273H641.616C642.556 19.5909 644.094 17.8788 646.23 16.5909C648.366 15.2879 650.738 14.6364 653.344 14.6364C656.662 14.6364 659.185 15.7121 660.912 17.8636C662.654 20.0152 663.223 22.8788 662.616 26.4545L658.707 50H646.162L649.616 29.6364C649.829 28.1061 649.616 26.9091 648.98 26.0455C648.344 25.1667 647.374 24.7273 646.071 24.7273C644.783 24.7273 643.692 25.1667 642.798 26.0455C641.92 26.9091 641.374 28.1061 641.162 29.6364L637.707 50H625.707L629.162 29.6364C629.374 28.1061 629.162 26.9091 628.526 26.0455C627.889 25.1667 626.92 24.7273 625.616 24.7273C624.768 24.7273 623.995 24.9242 623.298 25.3182C622.616 25.7121 622.048 26.2803 621.594 27.0227C621.154 27.75 620.859 28.6212 620.707 29.6364L617.253 50H604.707ZM681.44 50.6364C677.713 50.6364 674.622 49.9242 672.168 48.5C669.713 47.0606 667.986 45 666.986 42.3182C665.986 39.6212 665.804 36.3939 666.44 32.6364C667.046 29.0303 668.296 25.8788 670.19 23.1818C672.099 20.4848 674.501 18.3864 677.395 16.8864C680.304 15.3864 683.562 14.6364 687.168 14.6364C689.804 14.6364 692.115 15.0455 694.099 15.8636C696.099 16.6818 697.728 17.8712 698.986 19.4318C700.243 20.9924 701.092 22.8788 701.531 25.0909C701.986 27.2879 701.986 29.7727 701.531 32.5455L701.077 35.4545H669.895L670.986 28.5455H690.622C690.774 27.5455 690.675 26.6667 690.327 25.9091C689.993 25.1364 689.455 24.5379 688.713 24.1136C687.986 23.6742 687.107 23.4545 686.077 23.4545C685.046 23.4545 684.077 23.6742 683.168 24.1136C682.274 24.553 681.509 25.1667 680.872 25.9545C680.251 26.7424 679.834 27.6667 679.622 28.7273L678.259 36C678.077 37.1212 678.145 38.1212 678.463 39C678.781 39.8788 679.334 40.5682 680.122 41.0682C680.91 41.5682 681.925 41.8182 683.168 41.8182C684.016 41.8182 684.819 41.7045 685.577 41.4773C686.349 41.2348 687.031 40.8864 687.622 40.4318C688.228 39.9621 688.713 39.3939 689.077 38.7273H700.531C699.713 41.1515 698.418 43.2576 696.645 45.0455C694.887 46.8182 692.721 48.197 690.145 49.1818C687.584 50.1515 684.683 50.6364 681.44 50.6364ZM719.651 30.3636L716.378 50H703.832L709.651 15.0909H721.56L720.469 21.7273H720.832C721.938 19.5 723.552 17.7652 725.673 16.5227C727.81 15.2652 730.166 14.6364 732.741 14.6364C735.211 14.6364 737.264 15.197 738.901 16.3182C740.537 17.4394 741.696 18.9848 742.378 20.9545C743.06 22.9242 743.181 25.1818 742.741 27.7273L739.014 50H726.469L729.741 30.3636C730.029 28.6364 729.817 27.2803 729.105 26.2955C728.408 25.3106 727.257 24.8182 725.651 24.8182C724.635 24.8182 723.704 25.0455 722.855 25.5C722.022 25.9394 721.325 26.5758 720.764 27.4091C720.219 28.2273 719.848 29.2121 719.651 30.3636ZM771.753 15.0909L770.207 24.1818H747.207L748.753 15.0909H771.753ZM754.571 6.72727H767.116L761.798 38.7727C761.723 39.2576 761.738 39.6667 761.844 40C761.95 40.3182 762.162 40.5606 762.48 40.7273C762.813 40.8788 763.253 40.9545 763.798 40.9545C764.162 40.9545 764.609 40.9091 765.139 40.8182C765.67 40.7121 766.071 40.6364 766.344 40.5909L766.707 49.4091C766.071 49.5909 765.215 49.7955 764.139 50.0227C763.079 50.2652 761.844 50.4242 760.435 50.5C757.495 50.6364 755.101 50.3258 753.253 49.5682C751.42 48.8106 750.147 47.6288 749.435 46.0227C748.738 44.4015 748.616 42.3788 749.071 39.9545L754.571 6.72727ZM806.406 26.4545H795.134C795.194 25.7273 795.065 25.1061 794.747 24.5909C794.429 24.0758 793.982 23.6818 793.406 23.4091C792.846 23.1364 792.209 23 791.497 23C790.255 23 789.126 23.2803 788.111 23.8409C787.096 24.3864 786.527 25.1061 786.406 26C786.33 26.3485 786.444 26.6742 786.747 26.9773C787.05 27.2803 787.846 27.5606 789.134 27.8182L796.043 29.0909C799.497 29.7273 802.012 30.8864 803.588 32.5682C805.179 34.2348 805.755 36.4394 805.315 39.1818C804.906 41.5606 803.861 43.6061 802.179 45.3182C800.497 47.0303 798.361 48.3485 795.77 49.2727C793.194 50.1818 790.346 50.6364 787.224 50.6364C781.724 50.6364 777.603 49.5379 774.861 47.3409C772.134 45.1439 770.891 42.2727 771.134 38.7273H783.315C783.346 39.8636 783.724 40.7197 784.452 41.2955C785.194 41.8561 786.179 42.1515 787.406 42.1818C788.74 42.2273 789.906 41.9621 790.906 41.3864C791.906 40.7955 792.467 40.0606 792.588 39.1818C792.634 38.6818 792.414 38.303 791.929 38.0455C791.459 37.7879 790.558 37.5303 789.224 37.2727L783.224 36.1818C779.77 35.5606 777.255 34.3182 775.679 32.4545C774.103 30.5758 773.558 28.1818 774.043 25.2727C774.437 22.9545 775.376 21.0076 776.861 19.4318C778.361 17.8561 780.33 16.6667 782.77 15.8636C785.209 15.0455 788.027 14.6364 791.224 14.6364C796.452 14.6364 800.406 15.6894 803.088 17.7955C805.785 19.8864 806.891 22.7727 806.406 26.4545ZM830.486 3.45454L824.031 35.4545H813.759L817.849 3.45454H830.486ZM816.849 50.7273C815.077 50.7273 813.63 50.1136 812.509 48.8864C811.402 47.6439 810.94 46.1364 811.122 44.3636C811.304 42.6364 812.084 41.1591 813.463 39.9318C814.857 38.7045 816.44 38.0909 818.213 38.0909C819.895 38.0909 821.296 38.7045 822.418 39.9318C823.554 41.1591 824.031 42.6364 823.849 44.3636C823.728 45.5455 823.312 46.6212 822.599 47.5909C821.902 48.5455 821.039 49.3106 820.009 49.8864C818.993 50.447 817.94 50.7273 816.849 50.7273Z" fill="url(#paint0_linear_23_31)"/>
<defs>
<linearGradient id="paint0_linear_23_31" x1="415.5" y1="-12" x2="415.5" y2="65" gradientUnits="userSpaceOnUse">
<stop stop-color="#325FFF"/>
<stop offset="0.5" stop-color="#FB2DFF"/>
<stop offset="1" stop-color="#A531FF"/>
</linearGradient>
</defs>
</svg>
